<?xml version="1.0" standalone="no"?>
<!DOCTYPE svg PUBLIC "-//W3C//DTD SVG 20010904//EN"
 "http://www.w3.org/TR/2001/REC-SVG-20010904/DTD/svg10.dtd">
<svg version="1.0" xmlns="http://www.w3.org/2000/svg"
 width="512.000000pt" height="512.000000pt" viewBox="0 0 512.000000 512.000000"
 preserveAspectRatio="xMidYMid meet">

<g transform="translate(0.000000,512.000000) scale(0.100000,-0.100000)"
fill="#000000" stroke="none">
<path d="M340 4425 c-16 -19 -4 -125 20 -181 10 -23 21 -57 25 -75 16 -71 132
-240 192 -280 13 -9 30 -25 38 -36 7 -10 44 -34 82 -53 37 -19 75 -40 84 -47
9 -8 56 -21 105 -31 82 -16 214 -17 1669 -17 1211 0 1597 3 1651 12 83 15 186
60 264 116 63 46 210 193 210 211 0 7 11 27 24 45 14 19 28 48 31 65 4 17 16
56 28 85 14 37 21 78 21 125 l1 71 -2216 3 c-1945 2 -2218 0 -2229 -13z"/>
<path d="M349 2913 c-12 -13 -14 -199 -17 -1101 -2 -798 1 -1088 9 -1098 9
-11 76 -14 351 -14 215 0 346 4 359 10 19 10 19 29 19 727 0 670 1 717 18 729
14 11 278 13 1470 14 983 0 1460 -3 1473 -10 19 -10 19 -29 19 -730 0 -704 0
-720 20 -730 12 -7 139 -9 367 -8 l348 3 3 1087 c1 691 -1 1096 -8 1112 l-10
26 -2204 0 c-2037 0 -2205 -1 -2217 -17z"/>
</g>
</svg>
